<svg width="182" height="40" viewBox="0 0 182 40" fill="none" xmlns="http://www.w3.org/2000/svg">
<path d="M172.667 10.9449L172.797 10.9495L173.892 10.9923L174.024 10.9988C178.35 11.2448 181.75 14.6543 181.817 18.814L181.818 18.9403V28.666H176.832V26.1754L176.246 26.8541L176.181 26.928C174.994 28.25 173.041 29.0909 171.397 29.0909C166.194 29.0909 162.881 25.5663 162.881 20.0327C162.881 14.4911 166.176 10.9091 171.159 10.9091C171.48 10.9091 171.983 10.921 172.667 10.9449ZM95.3515 10.9449L95.4818 10.9495L96.5762 10.9923L96.7089 10.9988C101.034 11.2448 104.434 14.6543 104.502 18.814L104.503 18.9403V28.666H99.5169V26.1754L98.9304 26.8541L98.8653 26.928C97.6786 28.25 95.7251 29.0909 94.0813 29.0909C88.8786 29.0909 85.5655 25.5663 85.5655 20.0327C85.5655 14.4911 88.8601 10.9091 93.8431 10.9091C94.1646 10.9091 94.6678 10.921 95.3515 10.9449ZM137.408 10.9449L137.538 10.9495L138.633 10.9923L138.765 10.9988C143.091 11.2448 146.491 14.6543 146.558 18.814L146.559 18.9403V28.666H141.573V26.1754L140.987 26.8541L140.922 26.928C139.735 28.25 137.782 29.0909 136.138 29.0909C130.935 29.0909 127.622 25.5663 127.622 20.0327C127.622 14.4911 130.917 10.9091 135.9 10.9091C136.221 10.9091 136.724 10.921 137.408 10.9449ZM75.8418 11.6277C83.0825 11.6277 83.4627 16.8793 83.4627 18.327V28.7381H77.9771V19.4543C77.9771 17.5643 76.7006 16.3707 75.0791 16.3707C73.0436 16.3707 71.6981 17.7964 71.6981 20.5816V28.7381H66.1781V19.4543C66.1781 17.5643 64.9016 16.3707 63.2456 16.3707C61.2446 16.3707 59.9336 17.7964 59.9336 20.5816V28.7381H54.584L54.5454 18.3409C54.8862 13.8654 57.7825 11.6277 63.2343 11.6277C67.4084 11.6277 68.5024 12.5909 69.6754 14.4145C71.0554 12.6903 73.1508 11.6277 75.8418 11.6277ZM160.8 10.9418L160.872 10.9423C160.991 10.9443 161.107 10.9513 161.234 10.9636L161.285 10.9689V16.3509L161.124 16.3244C160.533 16.2297 160.083 16.186 159.643 16.186L159.558 16.1865C156.749 16.2173 155.058 17.7706 155.058 20.7514V28.666H149.868V18.151L149.869 18.0369C149.931 14.2792 153.036 11.208 156.961 11.0503C158.525 10.9875 159.696 10.9519 160.474 10.9436L160.8 10.9418ZM116.365 11.6506C119.834 11.6506 122.191 12.6037 123.617 14.2479L123.694 14.3389C124.66 15.4976 125.102 16.9154 125.102 18.1378V28.666H119.877L119.878 20.327L119.877 20.2137C119.866 19.167 119.75 18.4215 119.389 17.7311C118.856 16.7134 117.867 16.1425 116.365 16.1425C114.767 16.1425 113.734 16.8541 113.207 18.0613L113.163 18.1659C112.851 18.9367 112.772 19.7765 112.818 20.6363L112.817 28.666H107.628V18.1628L107.646 18.0577C108.415 13.7685 111.288 11.6506 116.365 11.6506ZM171.874 15.5568C169.458 15.5568 167.723 17.0923 167.723 20C167.723 22.777 169.322 24.4759 172.01 24.4759C173.507 24.4759 174.869 23.8878 175.617 22.483C176.047 21.8632 176.262 21.0356 176.262 20C176.262 18.9644 176.047 18.115 175.617 17.4517C174.937 16.2429 173.439 15.5568 171.874 15.5568ZM136.615 15.5568C134.199 15.5568 132.464 17.0923 132.464 20C132.464 22.777 134.063 24.4759 136.751 24.4759C138.248 24.4759 139.609 23.8878 140.358 22.483C140.821 21.6822 141.053 20.7823 141.053 19.7831C141.053 18.8746 140.821 18.0975 140.358 17.4517C139.678 16.2429 138.18 15.5568 136.615 15.5568ZM94.5586 15.5568C92.1426 15.5568 90.4072 17.0923 90.4072 20C90.4072 22.777 92.0065 24.4759 94.6947 24.4759C96.1919 24.4759 97.553 23.8878 98.3016 22.483C98.6425 21.69 98.813 20.7853 98.813 19.7687C98.813 18.7522 98.6425 17.9798 98.3016 17.4517C97.6211 16.2429 96.1239 15.5568 94.5586 15.5568Z" fill="#0F0928"/>
<path fill-rule="evenodd" clip-rule="evenodd" d="M16.7668 21.2903L16.7683 23.604H19.2311L19.1079 33.0076L16.7683 35.2982L14.4288 37.5888L11.9661 40H9.62649L9.50335 30.5964L0 30.5712V28.3181L7.17792 21.2903H16.7668ZM40.866 32.9032L33.6544 40V32.9032H40.866ZM7.21165 32.9032V40L0 32.9032H7.21165ZM20.3307 34.7908L23.9818 37.931V39.9439H16.8758V37.931L20.3307 34.7908ZM33.4695 21.0753L40.6475 28.103V30.3562L31.1441 30.3813L31.021 39.785H28.6814L26.2187 37.3738L23.8791 35.0831L21.5395 32.7925L21.4164 23.3889H23.8791L23.8807 21.0753H33.4695ZM40.6475 16.3441V23.4409H38.6399L35.6212 19.8814L38.6399 16.3441H40.6475ZM1.91427 16.3441L5.0263 19.8814L1.91427 23.4409H0V16.3441H1.91427ZM21.4164 18.7097V21.0753H19.0125V18.7097H21.4164ZM31.021 0L31.1441 9.40362L40.6475 9.42877V11.6819L33.4695 18.7097H23.8807L23.8791 16.396H21.4164L21.5395 6.99243L23.8791 4.70181L26.2187 2.41118L28.6814 0H31.021ZM11.9661 0L14.4288 2.41118L16.7683 4.70181L19.1079 6.99243L19.2311 16.396H16.7683L16.7668 18.7097H7.17792L0 11.6819V9.42877L9.50335 9.40362L9.62649 0H11.9661ZM7.21165 0.215054V7.31183H0L7.21165 0.215054ZM33.6544 0L40.866 7.09677H33.6544V0ZM23.8731 0.0590039V1.97089L20.222 4.78321L16.7672 1.97089V0.0590039H23.8731Z" fill="#FF773B"/>
</svg>
